<?xml version="1.0" encoding="UTF-8" standalone="no"?>
<svg
   version="1.1"
   width="16"
   height="16"
   id="svg7357"
   xml:space="preserve"
   xmlns:xlink="http://www.w3.org/1999/xlink"
   xmlns="http://www.w3.org/2000/svg"
   xmlns:svg="http://www.w3.org/2000/svg"
   xmlns:rdf="http://www.w3.org/1999/02/22-rdf-syntax-ns#"
   xmlns:cc="http://creativecommons.org/ns#"
   xmlns:dc="http://purl.org/dc/elements/1.1/"><defs
     id="defs7359"><linearGradient
       x1="23.99999"
       y1="7.1818099"
       x2="23.99999"
       y2="40.818172"
       id="linearGradient4224"
       xlink:href="#linearGradient3924-4-8"
       gradientUnits="userSpaceOnUse"
       gradientTransform="matrix(0.2972973,0,0,0.2972973,0.86486973,0.86486734)" /><linearGradient
       id="linearGradient3924-4-8"><stop
         id="stop3926-0-4"
         style="stop-color:#ffffff;stop-opacity:1"
         offset="0" /><stop
         id="stop3928-6-8"
         style="stop-color:#ffffff;stop-opacity:0.23529412"
         offset="0" /><stop
         id="stop3930-2-1"
         style="stop-color:#ffffff;stop-opacity:0.15686275"
         offset="1" /><stop
         id="stop3932-9-0"
         style="stop-color:#ffffff;stop-opacity:0.39215687"
         offset="1" /></linearGradient><linearGradient
       xlink:href="#linearGradient5558"
       id="linearGradient856-2-3"
       x1="12.113396"
       y1="13.057611"
       x2="46.445847"
       y2="47.39006"
       gradientUnits="userSpaceOnUse"
       gradientTransform="matrix(0.35897425,0,0,0.35897425,-0.61538471,-0.97435694)" /><linearGradient
       id="linearGradient5558"><stop
         id="stop5554"
         offset="0"
         style="stop-color:#a56de2;stop-opacity:1" /><stop
         id="stop5556"
         offset="1"
         style="stop-color:#3689e6;stop-opacity:1" /></linearGradient><linearGradient
       id="linearGradient2382"><stop
         style="stop-color:#ffffff;stop-opacity:1;"
         offset="0"
         id="stop2378" /><stop
         style="stop-color:#ffffff;stop-opacity:0;"
         offset="1"
         id="stop2380" /></linearGradient><linearGradient
       xlink:href="#linearGradient874"
       id="linearGradient1334"
       x1="63.654377"
       y1="63.575733"
       x2="15.236819"
       y2="15.158175"
       gradientUnits="userSpaceOnUse"
       gradientTransform="matrix(0.23636357,0,0,0.23636357,0.43636829,0.43636346)" /><linearGradient
       id="linearGradient874"><stop
         id="stop870-3"
         offset="0"
         style="stop-color:#002e99;stop-opacity:1" /><stop
         id="stop872"
         offset="1"
         style="stop-color:#452981;stop-opacity:1" /></linearGradient><linearGradient
       xlink:href="#linearGradient2382"
       id="linearGradient674"
       gradientUnits="userSpaceOnUse"
       gradientTransform="matrix(0.25454545,0,0,0.25454545,-0.14545253,-0.14545696)"
       x1="37.153172"
       y1="4.255136"
       x2="37.153172"
       y2="59.47414" /></defs><metadata
     id="metadata7362"><rdf:RDF><cc:Work
         rdf:about=""><dc:format>image/svg+xml</dc:format><dc:type
           rdf:resource="http://purl.org/dc/dcmitype/StillImage" /></cc:Work></rdf:RDF></metadata><rect
     style="color:#000000;display:inline;overflow:visible;visibility:visible;opacity:1;fill:url(#linearGradient856-2-3);fill-opacity:1;fill-rule:nonzero;stroke:none;stroke-width:0.999999;marker:none;enable-background:accumulate;font-variation-settings:normal;vector-effect:none;stroke-linecap:butt;stroke-linejoin:miter;stroke-miterlimit:4;stroke-dasharray:none;stroke-dashoffset:0;stroke-opacity:0.5;stop-color:#000000;stop-opacity:1;-inkscape-stroke:none"
     id="rect5505-21-2"
     y="1.4999971"
     x="1.5"
     ry="2"
     rx="2"
     height="13.000003"
     width="13.000003" /><rect
     style="color:#000000;font-variation-settings:normal;display:inline;overflow:visible;visibility:visible;opacity:0.2;vector-effect:none;fill:url(#linearGradient674);fill-opacity:1;fill-rule:nonzero;stroke:none;stroke-width:0.999999;stroke-linecap:butt;stroke-linejoin:miter;stroke-miterlimit:4;stroke-dasharray:none;stroke-dashoffset:0;stroke-opacity:0.5;-inkscape-stroke:none;marker:none;enable-background:accumulate;stop-color:#000000"
     id="rect5505-21-2-0"
     y="1.4999971"
     x="1.5"
     ry="2"
     rx="2"
     height="13.000003"
     width="13.000003" /><rect
     style="opacity:0.35;fill:none;stroke:url(#linearGradient4224);stroke-width:1;stroke-linecap:round;stroke-linejoin:round;stroke-miterlimit:4;stroke-dasharray:none;stroke-dashoffset:0;stroke-opacity:1"
     id="rect6741-0-3"
     y="2.4999971"
     x="2.5"
     height="11"
     width="11"
     rx="1"
     ry="1" /><rect
     style="color:#000000;font-variation-settings:normal;display:inline;overflow:visible;visibility:visible;vector-effect:none;fill:none;fill-opacity:1;fill-rule:nonzero;stroke:url(#linearGradient1334);stroke-width:0.999998;stroke-linecap:butt;stroke-linejoin:miter;stroke-miterlimit:4;stroke-dasharray:none;stroke-dashoffset:0;stroke-opacity:0.5;marker:none;enable-background:accumulate;stop-color:#000000;opacity:1;-inkscape-stroke:none;stop-opacity:1"
     id="rect5505-21-2-7"
     y="1.4999971"
     x="1.5"
     ry="2"
     rx="2"
     height="13.000003"
     width="13.000003" /><path
     id="path724-5-2"
     style="color:#000000;opacity:0.15;fill:#452981;stroke-width:1;marker:none"
     d="m 4.875,3.2851562 c -0.9990415,0 -1.8203125,0.8212709 -1.8203125,1.8203126 0,0.9990418 0.8212711,1.8203124 1.8203125,1.8203124 0.2280286,-8.37e-5 0.4272725,-0.1185603 0.6367188,-0.2011718 l 0.7421874,0.7421875 c 0.136789,0.140851 0.3440744,0.2247988 0.53125,0.2148437 C 6.9723319,7.6716855 7.1273028,7.5875411 7.2421875,7.4726562 7.3570722,7.3577714 7.4412171,7.2028008 7.4511719,7.015625 7.4611266,6.8284492 7.3771798,6.6211634 7.2363281,6.484375 L 6.4941406,5.7421875 C 6.5767521,5.5327413 6.6952284,5.333497 6.6953125,5.1054688 6.6953125,4.1064269 5.8740412,3.2851563 4.875,3.2851562 Z m 5.78125,0.035156 c -0.260276,0.011031 -0.50101,0.1765457 -0.605469,0.4160156 L 9.7949219,4.3203125 H 9.125 c -0.2972201,3.234e-4 -0.5551316,0.2026462 -0.6484375,0.4472656 -0.093306,0.2446194 -0.034703,0.5678755 0.1875,0.765625 L 9.1875,5.9980469 8.90625,6.7792969 a 0.44504124,0.44504124 0 0 0 0,0.00195 C 8.8043856,7.0684052 8.91841,7.3858937 9.125,7.5527344 c 0.20659,0.1668407 0.5389663,0.212712 0.7988281,0.054687 a 0.44504124,0.44504124 0 0 0 0.00195,-0.00195 L 10.6875,7.140625 11.449219,7.6054688 a 0.44504124,0.44504124 0 0 0 0.002,0.00195 C 11.710487,7.7651135 12.043725,7.720391 12.25,7.5527344 12.456275,7.3850777 12.568273,7.0673115 12.466797,6.78125 a 0.44504124,0.44504124 0 0 0 0,-0.00195 l -0.28125,-0.78125 0.525391,-0.4628907 a 0.44504124,0.44504124 0 0 0 0,-0.00195 C 12.933139,5.335455 12.991743,5.0121999 12.898438,4.7675781 12.805132,4.5229563 12.547219,4.3206359 12.25,4.3203125 H 11.578125 L 11.324219,3.7363281 C 11.20844,3.471035 10.938991,3.3091371 10.658203,3.3203125 a 0.44504124,0.44504124 0 0 0 -0.002,0 z M 4.859375,4.5449219 c 0.311746,-3e-7 0.5546875,0.2429411 0.5546875,0.5546875 0,0.3117462 -0.2429412,0.5546875 -0.5546875,0.5546875 -0.3117452,0 -0.5546875,-0.2429422 -0.5546875,-0.5546875 0,-0.3117461 0.2429419,-0.5546875 0.5546875,-0.5546875 z" /><path
     style="color:#000000;line-height:normal;font-variant-ligatures:normal;font-variant-position:normal;font-variant-caps:normal;font-variant-numeric:normal;font-variant-alternates:normal;font-feature-settings:normal;text-indent:0;text-align:start;text-decoration-line:none;text-decoration-style:solid;text-decoration-color:#000000;text-transform:none;text-orientation:mixed;shape-padding:0;opacity:0.15;isolation:auto;mix-blend-mode:normal;fill:#452981;stroke-width:1"
     d="m 12.120904,11.94325 c -0.0033,0 0.01309,0.0076 0.01514,0.0078 a 0.25238588,0.25238588 0 0 0 -0.05127,0.0034 c 0.0236,-0.01182 0.03684,-0.01123 0.03613,-0.01123 z"
     id="path393" /><path
     style="color:#000000;line-height:normal;font-variant-ligatures:normal;font-variant-position:normal;font-variant-caps:normal;font-variant-numeric:normal;font-variant-alternates:normal;font-feature-settings:normal;text-indent:0;text-align:start;text-decoration-line:none;text-decoration-style:solid;text-decoration-color:#000000;text-transform:none;text-orientation:mixed;shape-padding:0;opacity:0.15;isolation:auto;mix-blend-mode:normal;fill:#452981;stroke-width:1"
     d="m 11.78888,10.603925 0.0034,0.0024 c -7.5e-4,-6e-4 -0.0017,8.2e-5 -0.0024,-5e-4 -5.5e-4,-4.25e-4 -4.25e-4,-0.0015 -10e-4,-0.0019 z"
     id="path391" /><path
     id="path703-7-6"
     style="opacity:0.15;fill:#002e99;stroke-width:1"
     d="m 7.4296875,9.8222656 -4,0.8359374 a 0.34721625,0.34721625 0 0 0 -0.1425781,0.613281 l 0.6152344,0.482422 v 0.994141 a 0.34721625,0.34721625 0 0 0 0.5195312,0.300781 l 0.7539062,-0.429687 0.5039063,0.363281 a 0.34721625,0.34721625 0 0 0 0.4960937,-0.0957 L 7.7929688,10.347656 A 0.34721625,0.34721625 0 0 0 7.4296875,9.8222656 Z m 2.4570313,0.091797 a 0.34721625,0.34721625 0 0 0 -0.328125,0.2324215 l -0.8789063,2.5 a 0.34721625,0.34721625 0 0 0 0.328125,0.462891 h 0.5683594 a 0.34721625,0.34721625 0 0 0 0.3261719,-0.228516 l 0.099609,-0.271484 h 0.251953 c 0.1159,0.287837 0.420901,0.507812 0.730469,0.507813 0.169602,0 0.329269,-0.05811 0.472656,-0.148438 0.117357,0.08195 0.254124,0.148438 0.386719,0.148438 0.172583,0 0.36362,-0.07665 0.486328,-0.210938 a 0.34721625,0.34721625 0 0 0 0.0039,-0.0039 c 0.111771,-0.126676 0.134152,-0.220621 0.1875,-0.363282 a 0.34721625,0.34721625 0 0 0 -0.160156,-0.404296 l 0.222656,-1.050782 a 0.34721625,0.34721625 0 0 0 -0.339843,-0.419922 h -0.501953 a 0.34721625,0.34721625 0 0 0 -0.06641,0.05469 c -0.08466,-0.02641 -0.169919,-0.07227 -0.251953,-0.07227 -0.124783,0 -0.221361,0.09383 -0.33789,0.136719 l -0.22461,-0.636719 A 0.34721625,0.34721625 0 0 0 10.533203,9.9140625 Z m 2.2343752,2.1718755 c 2.63e-4,0 0.02435,0.01284 0.03125,0.01367 a 0.34721625,0.34721625 0 0 0 -0.111328,0.0078 c 0.03819,-0.01913 0.06957,-0.02148 0.08008,-0.02148 z" /><path
     id="path703-7"
     style="opacity:0.3;fill:#002e99;stroke-width:1"
     d="m 7.4999125,10.162818 -3.9999111,0.835919 0.7499832,0.585925 v 1.164037 L 5.1249651,12.24871 4.8749707,11.975278 5.882761,12.701824 Z m 2.387154,0.09814 -0.8788868,2.499945 H 9.5770149 L 9.757675,12.260916 h 0.522938 c -2.5e-4,-0.0104 -0.0025,-0.0203 -0.0025,-0.03076 0,-0.105494 0.0089,-0.211106 0.02734,-0.316398 l -5e-4,5e-4 c 0.0089,-0.05152 0.02015,-0.102581 0.03369,-0.153318 H 9.8904839 l 0.3217701,-0.999977 0.231928,0.70848 c 0.07988,-0.175678 0.184567,-0.331606 0.317376,-0.459951 0.0084,-0.0081 0.01868,-0.01371 0.02734,-0.02148 L 10.53256,10.260963 Z M 7.1405458,10.405 4.9296571,11.811219 4.710912,12.139337 4.4999791,12.272146 v -0.585924 z m 4.2826202,0.588854 c -0.190214,0 -0.353048,0.0651 -0.487783,0.195309 -0.134734,0.130204 -0.238076,0.294859 -0.31054,0.494129 -0.03283,0.09058 -0.05739,0.181721 -0.07324,0.273432 -0.01585,0.09058 -0.02343,0.181721 -0.02343,0.273431 0,0.09058 0.01302,0.17183 0.03906,0.243159 0.07246,0.19814 0.211406,0.296868 0.417471,0.296868 0.206063,0 0.381099,-0.107136 0.524891,-0.322258 0.01357,0.103033 0.05001,0.182641 0.108884,0.239252 0.05888,0.05548 0.133871,0.08301 0.225581,0.08301 0.09284,0 0.169479,-0.03247 0.229487,-0.09814 0.03397,-0.0385 0.07533,-0.123205 0.124021,-0.253412 -0.02037,0.0102 -0.04609,0.01562 -0.07666,0.01562 -0.09511,0 -0.142575,-0.03988 -0.142575,-0.119138 0,-0.04189 0.0049,-0.08244 0.01514,-0.122068 l 0.249995,-1.182102 h -0.500966 l -0.0376,0.185054 v -0.02539 c 0,-0.05095 -0.02225,-0.09265 -0.06641,-0.125486 -0.04416,-0.03396 -0.115693,-0.05127 -0.215328,-0.05127 z m 0.09326,0.215816 c 0.06454,0 0.106239,0.01682 0.125486,0.05078 0.02037,0.03283 0.03076,0.06003 0.03076,0.08154 l -0.166501,0.784651 c -0.02152,0.09511 -0.06057,0.17059 -0.117185,0.226069 -0.05661,0.05435 -0.119406,0.08154 -0.188472,0.08154 -0.03736,0 -0.06835,-0.01267 -0.09326,-0.0376 -0.04302,-0.04076 -0.06494,-0.112297 -0.06494,-0.215327 0,-0.05322 0.0031,-0.103813 0.0088,-0.151364 0.03736,-0.31136 0.129663,-0.550345 0.27685,-0.716781 0.06114,-0.06907 0.123936,-0.103513 0.188472,-0.103513 z" /><path
     id="path724-5"
     style="color:#000000;opacity:0.3;fill:#452981;stroke-width:1;marker:none"
     d="M 4.875 3.7304688 C 4.1185198 3.7304688 3.5 4.3489886 3.5 5.1054688 C 3.5 5.8619495 4.1185198 6.4804688 4.875 6.4804688 C 5.153034 6.4803668 5.4239378 6.3948661 5.6523438 6.2363281 L 6.5722656 7.15625 C 6.8079118 7.398894 7.1684257 7.0383791 6.9257812 6.8027344 L 6.0058594 5.8828125 C 6.1643971 5.654407 6.2498975 5.3835034 6.25 5.1054688 C 6.25 4.3489886 5.6314797 3.7304688 4.875 3.7304688 z M 10.675781 3.765625 C 10.580221 3.769675 10.497226 3.8263928 10.458984 3.9140625 L 10.085938 4.765625 L 9.125 4.765625 C 8.8952435 4.765875 8.7873521 5.0484279 8.9589844 5.2011719 L 9.7070312 5.8652344 L 9.3261719 6.9296875 C 9.247502 7.1514578 9.4923073 7.3488242 9.6933594 7.2265625 L 10.6875 6.6191406 L 11.681641 7.2265625 C 11.882693 7.3488237 12.125545 7.151458 12.046875 6.9296875 L 11.666016 5.8652344 L 12.416016 5.2011719 C 12.587648 5.0484284 12.479762 4.765875 12.25 4.765625 L 11.287109 4.765625 L 10.916016 3.9140625 C 10.874782 3.8195797 10.778786 3.7615252 10.675781 3.765625 z M 4.859375 4.0996094 C 5.4116373 4.099609 5.859375 4.5473471 5.859375 5.0996094 C 5.859375 5.6518716 5.4116373 6.0996094 4.859375 6.0996094 C 4.3071133 6.0996094 3.859375 5.6518712 3.859375 5.0996094 C 3.859375 4.5473471 4.3071133 4.0996095 4.859375 4.0996094 z " /><path
     id="path3329"
     style="fill:#ffffff;fill-opacity:1;stroke-width:1"
     d="m 4.8749487,3.229815 c -0.756481,0 -1.3749473,0.6184663 -1.3749473,1.3749473 0,0.7564815 0.6184663,1.3749473 1.3749473,1.3749473 0.2780343,-1.02e-4 0.5498844,-0.085593 0.7782906,-0.2441311 L 6.5731256,6.6564416 C 6.808772,6.8990858 7.1692727,6.5385847 6.926628,6.3029397 L 6.0067413,5.3820765 C 6.1652792,5.1536708 6.2497935,4.8827972 6.249896,4.6047623 6.249896,3.8482813 5.6314292,3.229815 4.8749487,3.229815 Z m 5.8015353,0.030274 c -0.09556,0.00405 -0.179522,0.061739 -0.217765,0.1494083 L 10.086663,4.2600505 H 9.1247857 C 8.895029,4.2603005 8.7871442,4.5438131 8.9587766,4.6965573 L 9.7077714,5.3596179 9.3269265,6.425983 c -0.07867,0.2217705 0.1651447,0.4191254 0.3661969,0.2968636 l 0.9941026,-0.6073982 0.994102,0.6073982 c 0.201053,0.1222613 0.444867,-0.075093 0.366197,-0.2968636 L 11.66668,5.3596179 12.415675,4.6965573 C 12.587308,4.5438131 12.479428,4.2603005 12.249666,4.2600505 H 11.287789 L 10.915733,3.4094971 C 10.874499,3.3150142 10.779489,3.255989 10.676484,3.260089 Z M 4.8603007,3.59992 c 0.5522629,-5e-7 0.9999617,0.4476989 0.9999617,0.9999617 0,0.5522628 -0.4476988,0.9999617 -0.9999617,0.9999617 -0.5522623,0 -0.9999616,-0.4476994 -0.9999616,-0.9999617 0,-0.5522628 0.4476993,-0.9999617 0.9999616,-0.9999617 z M 7.499848,9.6602339 3.5000014,10.496139 4.2499726,11.082054 v 1.164018 L 5.1249391,11.746091 4.8749487,11.472664 5.8827225,12.199199 Z M 9.887452,9.7578867 9.0085792,12.257791 H 9.5769169 L 9.757574,11.75781 h 0.523417 c -2.5e-4,-0.0104 -0.0029,-0.01981 -0.0029,-0.03027 0,-0.105495 0.0089,-0.211101 0.02734,-0.316394 0.0089,-0.05152 0.01967,-0.102578 0.0332,-0.153314 H 9.8903814 l 0.3222536,-0.999962 0.231436,0.708957 c 0.07988,-0.175678 0.184562,-0.331599 0.317371,-0.459943 0.0084,-0.0081 0.01868,-0.01371 0.02734,-0.02148 L 10.532936,9.7578847 Z M 7.1404868,9.9024121 4.9296341,11.308608 4.7108925,11.636721 4.4999631,11.769528 v -0.585916 z m 4.2127292,0.5868919 c -0.160064,0.006 -0.30006,0.08333 -0.417953,0.197258 -0.134734,0.130203 -0.238071,0.294851 -0.310535,0.494122 -0.03283,0.09058 -0.05739,0.181716 -0.07324,0.273427 -0.01585,0.09058 -0.02343,0.181717 -0.02343,0.273427 0,0.09058 0.01302,0.171826 0.03906,0.243154 0.07246,0.198141 0.211889,0.296864 0.417953,0.296864 0.206063,0 0.380603,-0.107132 0.524394,-0.322253 0.01357,0.103032 0.0505,0.182638 0.109371,0.239248 0.05888,0.05548 0.133867,0.08301 0.225577,0.08301 0.09284,0 0.169475,-0.03296 0.229484,-0.09863 0.03397,-0.0385 0.07533,-0.122714 0.124018,-0.25292 -0.02037,0.0102 -0.04657,0.01562 -0.07714,0.01562 -0.09511,0 -0.142573,-0.03988 -0.142573,-0.119136 0,-0.04189 0.0054,-0.08244 0.01562,-0.122065 l 0.249991,-1.182572 h -0.500957 l -0.03808,0.18554 v -0.02539 c 0,-0.05095 -0.02225,-0.09314 -0.0664,-0.125972 -0.04416,-0.03396 -0.11561,-0.04176 -0.214836,-0.05078 -0.02368,-0.0022 -0.04744,-0.0028 -0.07031,-0.002 z m 0.129878,0.199211 c 0.01424,-0.0016 0.02598,0.0041 0.0332,0.01855 0.02886,0.05772 0.106724,0.01682 0.125971,0.05078 0.02037,0.03283 0.03027,0.05954 0.03027,0.08105 l -0.166009,0.785127 c -0.02152,0.09511 -0.06057,0.170098 -0.117183,0.225577 -0.05661,0.05435 -0.119404,0.08203 -0.188469,0.08203 -0.03736,0 -0.06884,-0.01316 -0.09375,-0.03808 -0.04302,-0.04076 -0.06445,-0.111805 -0.06445,-0.214835 0,-0.05322 0.0031,-0.10381 0.0088,-0.151362 0.03736,-0.311359 0.12917,-0.550333 0.276357,-0.716769 0.04586,-0.0518 0.112531,-0.117257 0.155267,-0.122065 z" /></svg>
