<?xml version="1.0" encoding="UTF-8" standalone="no"?>
<svg
   version="1.1"
   width="48"
   height="48"
   id="svg6649"
   xmlns:xlink="http://www.w3.org/1999/xlink"
   xmlns="http://www.w3.org/2000/svg"
   xmlns:svg="http://www.w3.org/2000/svg"
   xmlns:rdf="http://www.w3.org/1999/02/22-rdf-syntax-ns#"
   xmlns:cc="http://creativecommons.org/ns#"
   xmlns:dc="http://purl.org/dc/elements/1.1/">
  <defs
     id="defs6651">
    <linearGradient
       id="linearGradient1201">
      <stop
         id="stop1193"
         style="stop-color:#ffffff;stop-opacity:1"
         offset="0" />
      <stop
         id="stop1195"
         style="stop-color:#ffffff;stop-opacity:0.23529412"
         offset="0.06781636" />
      <stop
         id="stop1197"
         style="stop-color:#ffffff;stop-opacity:0.15686275"
         offset="0.94694352" />
      <stop
         id="stop1199"
         style="stop-color:#ffffff;stop-opacity:0.39215687"
         offset="1" />
    </linearGradient>
    <linearGradient
       id="linearGradient3688-166-749">
      <stop
         id="stop2883"
         style="stop-color:#181818;stop-opacity:1"
         offset="0" />
      <stop
         id="stop2885"
         style="stop-color:#181818;stop-opacity:0"
         offset="1" />
    </linearGradient>
    <linearGradient
       id="linearGradient3702-501-757">
      <stop
         id="stop2895"
         style="stop-color:#181818;stop-opacity:0"
         offset="0" />
      <stop
         id="stop2897"
         style="stop-color:#181818;stop-opacity:1"
         offset="0.5" />
      <stop
         id="stop2899"
         style="stop-color:#181818;stop-opacity:0"
         offset="1" />
    </linearGradient>
    <radialGradient
       cx="4.9929786"
       cy="43.5"
       r="2.5"
       fx="4.9929786"
       fy="43.5"
       id="radialGradient3013-6"
       xlink:href="#linearGradient3688-166-749"
       gradientUnits="userSpaceOnUse"
       gradientTransform="matrix(2.003784,0,0,0.89999994,29.98813,4.8500025)" />
    <radialGradient
       cx="4.9929786"
       cy="43.5"
       r="2.5"
       fx="4.9929786"
       fy="43.5"
       id="radialGradient3015-1"
       xlink:href="#linearGradient3688-166-749"
       gradientUnits="userSpaceOnUse"
       gradientTransform="matrix(2.003784,0,0,0.89999994,-18.01187,-83.149997)" />
    <linearGradient
       x1="38.999996"
       y1="5.9999938"
       x2="38.999996"
       y2="41.945408"
       id="linearGradient3058-5"
       xlink:href="#linearGradient1201"
       gradientUnits="userSpaceOnUse"
       gradientTransform="translate(4e-6,1.0000062)" />
    <linearGradient
       xlink:href="#linearGradient3702-501-757"
       id="linearGradient1191"
       gradientUnits="userSpaceOnUse"
       x1="25.058096"
       y1="47.027729"
       x2="25.058096"
       y2="39.999443"
       gradientTransform="matrix(1.1428571,0,0,0.6428571,-3.428569,16.035716)" />
    <linearGradient
       xlink:href="#linearGradient5558"
       id="linearGradient856-2-3"
       x1="12.113396"
       y1="13.057611"
       x2="46.445847"
       y2="47.39006"
       gradientUnits="userSpaceOnUse"
       gradientTransform="matrix(1.025641,0,0,1.025641,-0.61538364,-0.64102791)" />
    <linearGradient
       id="linearGradient5558">
      <stop
         id="stop5554"
         offset="0"
         style="stop-color:#a56de2;stop-opacity:1" />
      <stop
         id="stop5556"
         offset="1"
         style="stop-color:#3689e6;stop-opacity:1" />
    </linearGradient>
    <linearGradient
       xlink:href="#linearGradient2382"
       id="linearGradient2384"
       x1="37.153172"
       y1="4.255136"
       x2="37.153172"
       y2="59.47414"
       gradientUnits="userSpaceOnUse"
       gradientTransform="matrix(0.72727273,0,0,0.72727273,0.72728936,1.7272665)" />
    <linearGradient
       id="linearGradient2382">
      <stop
         style="stop-color:#ffffff;stop-opacity:1;"
         offset="0"
         id="stop2378" />
      <stop
         style="stop-color:#ffffff;stop-opacity:0;"
         offset="1"
         id="stop2380" />
    </linearGradient>
    <linearGradient
       xlink:href="#linearGradient874"
       id="linearGradient1334"
       x1="63.654377"
       y1="63.575733"
       x2="15.236819"
       y2="15.158175"
       gradientUnits="userSpaceOnUse"
       gradientTransform="matrix(0.70909091,0,0,0.70909091,1.3091074,2.3090848)" />
    <linearGradient
       id="linearGradient874">
      <stop
         id="stop870-3"
         offset="0"
         style="stop-color:#002e99;stop-opacity:1" />
      <stop
         id="stop872"
         offset="1"
         style="stop-color:#452981;stop-opacity:1" />
    </linearGradient>
  </defs>
  <metadata
     id="metadata6654">
    <rdf:RDF>
      <cc:Work
         rdf:about="">
        <dc:format>image/svg+xml</dc:format>
        <dc:type
           rdf:resource="http://purl.org/dc/dcmitype/StillImage" />
      </cc:Work>
    </rdf:RDF>
  </metadata>
  <rect
     style="opacity:0.6;fill:url(#radialGradient3013-6);fill-opacity:1;stroke:none;stroke-width:0.862764"
     id="rect2801-3-7"
     y="41.75"
     x="40"
     height="4.4999995"
     width="5" />
  <rect
     style="opacity:0.6;fill:url(#radialGradient3015-1);fill-opacity:1;stroke:none;stroke-width:0.862764"
     id="rect3696-6-3"
     transform="scale(-1)"
     y="-46.25"
     x="-8"
     height="4.4999995"
     width="5" />
  <rect
     style="opacity:0.6;fill:url(#linearGradient1191);fill-opacity:1;stroke:none;stroke-width:0.862764"
     id="rect3700-4-6"
     y="41.75"
     x="8"
     height="4.5"
     width="32" />
  <rect
     style="color:#000000;display:inline;overflow:visible;visibility:visible;opacity:1;fill:url(#linearGradient856-2-3);fill-opacity:1;fill-rule:nonzero;stroke:none;stroke-width:1;stroke-opacity:0.5;marker:none;enable-background:accumulate;font-variation-settings:normal;vector-effect:none;stroke-linecap:butt;stroke-linejoin:miter;stroke-miterlimit:4;stroke-dasharray:none;stroke-dashoffset:0;-inkscape-stroke:none;stop-color:#000000;stop-opacity:1"
     id="rect5505-21-1"
     y="5.4999952"
     x="4.5000153"
     ry="4"
     rx="4"
     height="39"
     width="39" />
  <rect
     style="color:#000000;display:inline;overflow:visible;visibility:visible;fill:url(#linearGradient2384);fill-opacity:1;fill-rule:nonzero;stroke:none;stroke-width:1;stroke-opacity:0.5;marker:none;enable-background:accumulate;font-variation-settings:normal;opacity:0.2;vector-effect:none;stroke-linecap:butt;stroke-linejoin:miter;stroke-miterlimit:4;stroke-dasharray:none;stroke-dashoffset:0;-inkscape-stroke:none;stop-color:#000000;stop-opacity:1"
     id="rect5505-21-1-0"
     y="5.4999952"
     x="4.5000153"
     ry="4"
     rx="4"
     height="39"
     width="39" />
  <rect
     style="opacity:0.35;fill:none;stroke:url(#linearGradient3058-5);stroke-width:1;stroke-linecap:round;stroke-linejoin:round;stroke-miterlimit:4;stroke-dasharray:none;stroke-dashoffset:0;stroke-opacity:1"
     id="rect6741-2"
     y="6.4999952"
     x="5.5000153"
     ry="3"
     rx="3"
     height="37"
     width="37" />
  <path
     id="path3474-2-7"
     style="opacity:0.15;fill:#002e99;fill-opacity:1;stroke-width:1"
     d="m 21.986328,30.052734 -11.169922,2.333985 a 0.87032586,0.87032586 0 0 0 -0.357422,1.537109 l 1.757813,1.375 V 38.125 a 0.87032586,0.87032586 0 0 0 1.302734,0.755859 l 2.160157,-1.234375 1.458984,1.052735 a 0.87032586,0.87032586 0 0 0 1.24414,-0.238281 l 4.515626,-7.089844 a 0.87032586,0.87032586 0 0 0 -0.91211,-1.31836 z m 7.455078,0.08789 a 0.87032586,0.87032586 0 0 0 -0.820312,0.582031 l -2.453125,6.980469 a 0.87032586,0.87032586 0 0 0 0.820312,1.160156 h 1.587891 a 0.87032586,0.87032586 0 0 0 0.818359,-0.576172 l 0.296875,-0.818359 h 0.828125 c 0.0022,0.0062 0.0016,0.01331 0.0039,0.01953 a 0.87032586,0.87032586 0 0 0 0.002,0 c 0.293514,0.802615 1.127954,1.402344 1.982421,1.402344 0.468355,0 0.904577,-0.166368 1.296876,-0.421875 0.317152,0.249108 0.714004,0.421873 1.101562,0.421875 0.465155,0 0.964773,-0.210131 1.283203,-0.558594 a 0.87032586,0.87032586 0 0 0 0.0098,-0.01172 c 0.278153,-0.315255 0.359769,-0.577354 0.509765,-0.978515 a 0.87032586,0.87032586 0 0 0 -0.466796,-1.070313 l 0.630859,-2.986328 a 0.87032586,0.87032586 0 0 0 -0.851563,-1.050781 h -1.398437 a 0.87032586,0.87032586 0 0 0 -0.189453,0.154297 C 34.19915,32.30947 33.964929,32.1875 33.730469,32.1875 c -0.372898,0 -0.664549,0.264233 -1.00586,0.404297 l -0.660156,-1.869141 a 0.87032586,0.87032586 0 0 0 -0.820312,-0.582031 z m 5.410156,2.361328 0.01172,0.0098 c -0.0025,-0.002 -0.0053,-2.2e-5 -0.0078,-0.002 -0.0022,-0.0017 -0.0017,-0.0062 -0.0039,-0.0078 z m 0.828126,3.707031 c -0.0034,0 0.0583,0.0331 0.07422,0.03516 a 0.87032586,0.87032586 0 0 0 -0.248047,0.01563 c 0.102333,-0.05122 0.160719,-0.05078 0.173829,-0.05078 z" />
  <rect
     style="color:#000000;display:inline;overflow:visible;visibility:visible;fill:none;fill-opacity:1;fill-rule:nonzero;stroke:url(#linearGradient1334);stroke-width:1;stroke-opacity:0.5;marker:none;enable-background:accumulate;font-variation-settings:normal;opacity:1;vector-effect:none;stroke-linecap:butt;stroke-linejoin:miter;stroke-miterlimit:4;stroke-dasharray:none;stroke-dashoffset:0;-inkscape-stroke:none;stop-color:#000000;stop-opacity:1"
     id="rect5505-21-1-2"
     y="5.4999952"
     x="4.5000153"
     ry="4"
     rx="4"
     height="39"
     width="39" />
  <path
     id="path4890"
     style="font-variation-settings:normal;opacity:0.15;vector-effect:none;fill:#452981;fill-opacity:1;stroke-width:1;stroke-linecap:butt;stroke-linejoin:miter;stroke-miterlimit:4;stroke-dasharray:none;stroke-dashoffset:0;stroke-opacity:1;-inkscape-stroke:none;marker:none;stop-color:#000000"
     d="M 15.484375 11.980469 C 12.740758 11.980469 10.488281 14.232899 10.488281 16.976562 C 10.488281 19.72023 12.740759 21.972656 15.484375 21.972656 C 16.176887 21.972648 16.804395 21.641635 17.4375 21.361328 L 19.712891 23.638672 C 19.713931 23.639756 19.715754 23.639545 19.716797 23.640625 C 20.349334 24.295782 21.527729 24.30821 22.171875 23.664062 C 22.816021 23.019916 22.803569 21.84155 22.148438 21.208984 L 19.869141 18.929688 C 20.149439 18.296587 20.480449 17.669069 20.480469 16.976562 C 20.480469 14.232899 18.227992 11.980468 15.484375 11.980469 z M 31.431641 12.208984 C 30.789223 12.236212 30.211912 12.638328 29.957031 13.222656 L 29.179688 15.001953 L 27.140625 15.001953 A 0.99225745 0.99225745 0 0 0 27.138672 15.001953 C 26.410053 15.002746 25.786929 15.495721 25.560547 16.091797 C 25.334164 16.687872 25.473328 17.468758 26.017578 17.953125 A 0.99225745 0.99225745 0 0 0 26.019531 17.955078 L 27.609375 19.363281 L 26.771484 21.707031 A 0.99225745 0.99225745 0 0 0 26.769531 21.708984 C 26.520527 22.41094 26.795846 23.180143 27.298828 23.587891 C 27.801811 23.995637 28.608219 24.105466 29.244141 23.71875 A 0.99225745 0.99225745 0 0 0 29.246094 23.716797 L 31.503906 22.335938 L 33.763672 23.716797 A 0.99225745 0.99225745 0 0 0 33.765625 23.71875 C 34.401109 24.105202 35.208306 23.994334 35.710938 23.585938 C 36.213568 23.17754 36.486976 22.410067 36.238281 21.708984 A 0.99225745 0.99225745 0 0 0 36.236328 21.707031 L 35.400391 19.363281 L 36.988281 17.955078 A 0.99225745 0.99225745 0 0 0 36.990234 17.953125 C 37.534486 17.468763 37.673645 16.687877 37.447266 16.091797 C 37.220885 15.495715 36.597759 15.002746 35.869141 15.001953 A 0.99225745 0.99225745 0 0 0 35.867188 15.001953 L 33.830078 15.001953 L 33.050781 13.220703 C 32.772508 12.585995 32.126272 12.181489 31.435547 12.208984 A 0.99225745 0.99225745 0 0 0 31.431641 12.208984 z M 15.5 15 A 2.0000001 2.0000431 0 0 1 17.5 17 A 2.0000001 2.0000431 0 0 1 15.5 19 A 2.0000001 2.0000431 0 0 1 13.5 17 A 2.0000001 2.0000431 0 0 1 15.5 15 z " />
  <path
     id="path3464-2"
     style="fill:#452981;fill-opacity:1;stroke-width:1;font-variation-settings:normal;opacity:0.3;vector-effect:none;stroke-linecap:butt;stroke-linejoin:miter;stroke-miterlimit:4;stroke-dasharray:none;stroke-dashoffset:0;stroke-opacity:1;-inkscape-stroke:none;marker:none;stop-color:#000000;stop-opacity:1"
     d="m 15.484375,12.973 c -2.202828,0 -4.003906,1.801033 -4.003906,4.003906 0,2.202875 1.801078,4.003907 4.003906,4.003907 A 3.9747104,3.9747958 0 0 0 17.75,20.271828 l 2.679688,2.679688 a 0.72796895,0.72798458 0 1 0 1.029296,-1.029297 l -2.679687,-2.679687 a 3.9747104,3.9747958 0 0 0 0.708984,-2.265626 c 0,-2.202873 -1.801079,-4.003907 -4.003906,-4.003906 z m 15.990234,0.228516 c -0.266857,0.01131 -0.500629,0.173146 -0.607421,0.417969 l -1.039063,2.375 h -2.6875 c -0.641598,6.98e-4 -0.942177,0.792201 -0.462891,1.21875 l 2.091797,1.851562 -1.064453,2.976563 c -0.219687,0.61931 0.461996,1.171503 1.023438,0.830078 l 2.77539,-1.697266 2.777344,1.697266 c 0.56144,0.341424 1.241171,-0.210768 1.021484,-0.830078 l -1.0625,-2.976563 2.089844,-1.851562 c 0.479287,-0.426546 0.178722,-1.218052 -0.46289,-1.21875 h -2.685547 l -1.039063,-2.375 C 32.027437,13.355633 31.762253,13.190066 31.474609,13.201516 Z M 15.5,14.000344 a 3.0000002,3.0000646 0 0 1 3,3 3.0000002,3.0000646 0 0 1 -3,3 3.0000002,3.0000646 0 0 1 -3,-3 3.0000002,3.0000646 0 0 1 3,-3 z" />
  <path
     style="color:#000000;line-height:normal;font-variant-ligatures:normal;font-variant-position:normal;font-variant-caps:normal;font-variant-numeric:normal;font-variant-alternates:normal;font-feature-settings:normal;text-indent:0;text-align:start;text-decoration-line:none;text-decoration-style:solid;text-decoration-color:#000000;text-transform:none;text-orientation:mixed;shape-padding:0;opacity:0.15;isolation:auto;mix-blend-mode:normal;fill:#452981;stroke-width:1"
     d="m 35.507976,36.681362 c -0.0094,0 0.03656,0.0212 0.04227,0.02182 a 0.70479129,0.70480642 0 0 0 -0.143168,0.0095 c 0.0659,-0.03299 0.102887,-0.03136 0.100899,-0.03136 z"
     id="path393" />
  <path
     style="color:#000000;line-height:normal;font-variant-ligatures:normal;font-variant-position:normal;font-variant-caps:normal;font-variant-numeric:normal;font-variant-alternates:normal;font-feature-settings:normal;text-indent:0;text-align:start;text-decoration-line:none;text-decoration-style:solid;text-decoration-color:#000000;text-transform:none;text-orientation:mixed;shape-padding:0;opacity:0.15;isolation:auto;mix-blend-mode:normal;fill:#452981;stroke-width:1"
     d="m 34.580794,32.941195 0.0095,0.0068 c -0.0021,-0.0016 -0.0047,2.28e-4 -0.0068,-0.0014 -0.0015,-0.0012 -0.0012,-0.0043 -0.0027,-0.0054 z"
     id="path391" />
  <path
     id="path3474-2"
     style="fill:#002e99;fill-opacity:1;stroke-width:1;opacity:0.3"
     d="m 22.164062,30.904 -11.169921,2.333984 2.09375,1.636719 v 3.25 l 2.445312,-1.396484 -0.699219,-0.763672 2.814454,2.029297 z m 7.277344,0.107422 -2.453125,6.980469 h 1.587891 l 0.503906,-1.394532 h 1.460938 c -6.98e-4,-0.02904 -0.0078,-0.05673 -0.0078,-0.08594 0,-0.294602 0.02669,-0.590729 0.07813,-0.884766 l -0.002,0.002 c 0.02485,-0.143884 0.05594,-0.286049 0.09375,-0.427734 h -1.251953 l 0.898437,-2.792969 0.648438,1.978516 c 0.223054,-0.490594 0.515847,-0.926746 0.886719,-1.285157 0.02346,-0.02269 0.05197,-0.03688 0.07617,-0.05859 l -0.716797,-2.03125 z m -8.28125,0.568359 -6.173828,3.927734 -0.609375,0.916016 -0.589844,0.371094 v -1.636719 z m 12.570313,1.478516 c -0.531173,0 -0.985084,0.181309 -1.361328,0.544922 -0.376248,0.363602 -0.664833,0.824382 -0.867188,1.380859 -0.09169,0.252945 -0.160817,0.507565 -0.205078,0.763672 -0.04426,0.252944 -0.06445,0.507564 -0.06445,0.763672 0,0.252943 0.03666,0.478544 0.109375,0.677734 0.202348,0.55332 0.590576,0.830078 1.166015,0.830078 0.575431,0 1.063307,-0.299645 1.464844,-0.90039 0.03791,0.287726 0.140283,0.509878 0.304688,0.667968 0.164412,0.154928 0.372803,0.232421 0.628906,0.232422 0.259258,0 0.47305,-0.09201 0.640625,-0.27539 0.09485,-0.107502 0.211699,-0.34342 0.347656,-0.707032 -0.0569,0.02848 -0.129479,0.04297 -0.214843,0.04297 -0.265581,0 -0.398437,-0.110704 -0.398438,-0.332031 0,-0.116986 0.01449,-0.23113 0.04297,-0.341797 l 0.697265,-3.300781 h -1.398437 l -0.105469,0.517578 v -0.07031 c 0,-0.142285 -0.06224,-0.259863 -0.185547,-0.351562 -0.123308,-0.09485 -0.323333,-0.142578 -0.601562,-0.142578 z m 0.261719,0.601562 c 0.180217,0 0.295861,0.04775 0.349609,0.142578 0.0569,0.09169 0.08594,0.168442 0.08594,0.228516 l -0.464843,2.191406 c -0.06011,0.265588 -0.168085,0.475931 -0.326172,0.63086 -0.158081,0.151762 -0.334476,0.226561 -0.527344,0.226562 -0.10434,0 -0.190206,-0.03391 -0.259766,-0.103516 -0.120145,-0.113822 -0.18164,-0.313843 -0.18164,-0.601562 0,-0.14861 0.0096,-0.291037 0.02539,-0.423828 0.10434,-0.869494 0.360465,-1.53717 0.771485,-2.001953 0.170738,-0.192871 0.347128,-0.289063 0.527344,-0.289063 z" />
  <path
     id="path3464"
     style="fill:#ffffff;fill-opacity:1;stroke-width:1"
     d="M 15.484375 11.972656 C 13.281549 11.972656 11.480469 13.773692 11.480469 15.976562 C 11.480469 18.179435 13.281549 19.980469 15.484375 19.980469 A 3.9747104 3.9747958 0 0 0 17.75 19.271484 L 20.429688 21.951172 A 0.72796895 0.72798458 0 1 0 21.458984 20.921875 L 18.779297 18.242188 A 3.9747104 3.9747958 0 0 0 19.488281 15.976562 C 19.488281 13.773692 17.6872 11.972655 15.484375 11.972656 z M 31.474609 12.201172 C 31.207753 12.212482 30.973979 12.374318 30.867188 12.619141 L 29.828125 14.994141 L 27.140625 14.994141 C 26.499028 14.994839 26.198449 15.786342 26.677734 16.212891 L 28.769531 18.064453 L 27.705078 21.041016 C 27.485391 21.660325 28.167074 22.212518 28.728516 21.871094 L 31.503906 20.173828 L 34.28125 21.871094 C 34.842689 22.212517 35.522421 21.660325 35.302734 21.041016 L 34.240234 18.064453 L 36.330078 16.212891 C 36.809365 15.786345 36.508799 14.994839 35.867188 14.994141 L 33.181641 14.994141 L 32.142578 12.619141 C 32.027437 12.355289 31.762253 12.189722 31.474609 12.201172 z M 15.5 13 A 3.0000002 3.0000646 0 0 1 18.5 16 A 3.0000002 3.0000646 0 0 1 15.5 19 A 3.0000002 3.0000646 0 0 1 12.5 16 A 3.0000002 3.0000646 0 0 1 15.5 13 z M 22.164062 29.904297 L 10.994141 32.238281 L 13.087891 33.875 L 13.087891 37.125 L 15.533203 35.728516 L 14.833984 34.964844 L 17.648438 36.994141 L 22.164062 29.904297 z M 29.441406 30.011719 L 26.988281 36.992188 L 28.576172 36.992188 L 29.080078 35.597656 L 30.541016 35.597656 C 30.540318 35.568616 30.533203 35.540929 30.533203 35.511719 C 30.533203 35.217117 30.559888 34.92099 30.611328 34.626953 L 30.609375 34.628906 C 30.634225 34.485022 30.665315 34.342857 30.703125 34.201172 L 29.451172 34.201172 L 30.349609 31.408203 L 30.998047 33.386719 C 31.221101 32.896125 31.513894 32.459973 31.884766 32.101562 C 31.908226 32.078874 31.936738 32.064679 31.960938 32.042969 L 31.244141 30.011719 L 29.441406 30.011719 z M 21.160156 30.580078 L 14.986328 34.507812 L 14.376953 35.423828 L 13.787109 35.794922 L 13.787109 34.158203 L 21.160156 30.580078 z M 33.730469 32.058594 C 33.199296 32.058594 32.745384 32.239903 32.369141 32.603516 C 31.992893 32.967117 31.704308 33.427899 31.501953 33.984375 C 31.410263 34.23732 31.341136 34.49194 31.296875 34.748047 C 31.252615 35.000991 31.232422 35.255611 31.232422 35.511719 C 31.232422 35.764661 31.269082 35.990263 31.341797 36.189453 C 31.544145 36.742773 31.932374 37.019531 32.507812 37.019531 C 33.083243 37.019531 33.57112 36.719885 33.972656 36.119141 C 34.010566 36.406866 34.112939 36.62902 34.277344 36.787109 C 34.441756 36.942037 34.650147 37.01953 34.90625 37.019531 C 35.165508 37.019531 35.3793 36.92752 35.546875 36.744141 C 35.641725 36.636639 35.758574 36.400721 35.894531 36.037109 C 35.837631 36.065589 35.765051 36.080078 35.679688 36.080078 C 35.414107 36.080078 35.281251 35.969374 35.28125 35.748047 C 35.28125 35.631061 35.295739 35.516917 35.324219 35.40625 L 36.021484 32.105469 L 34.623047 32.105469 L 34.517578 32.623047 L 34.517578 32.552734 C 34.517578 32.41045 34.455338 32.292871 34.332031 32.201172 C 34.208723 32.106322 34.008697 32.058594 33.730469 32.058594 z M 33.992188 32.660156 C 34.172404 32.660156 34.288049 32.707906 34.341797 32.802734 C 34.398697 32.894424 34.427734 32.971176 34.427734 33.03125 L 33.962891 35.222656 C 33.902781 35.488244 33.794806 35.698587 33.636719 35.853516 C 33.478638 36.005277 33.302243 36.080077 33.109375 36.080078 C 33.005035 36.080078 32.919169 36.046168 32.849609 35.976562 C 32.729464 35.862741 32.667969 35.662719 32.667969 35.375 C 32.667969 35.22639 32.677569 35.083963 32.693359 34.951172 C 32.797699 34.081679 33.053824 33.414001 33.464844 32.949219 C 33.635582 32.756348 33.811972 32.660156 33.992188 32.660156 z " />
  <path
     id="path3474-23"
     style="fill:#002e99;fill-opacity:1;stroke-width:1;opacity:0.15"
     d="M 22.164062 29.904297 L 21.429688 30.058594 L 21.068359 30.625 L 21.160156 30.580078 L 21.052734 30.648438 L 17.648438 35.994141 L 15.304688 34.304688 L 15.205078 34.369141 L 15.533203 34.728516 L 14.960938 35.056641 L 17.648438 36.994141 L 22.164062 29.904297 z M 19.910156 30.375 L 19.228516 30.517578 L 13.787109 33.158203 L 13.787109 34.158203 L 14.919922 33.609375 L 14.986328 33.507812 L 19.910156 30.375 z M 30.349609 30.408203 L 29.451172 33.201172 L 29.773438 33.201172 L 30.349609 31.408203 L 30.998047 33.386719 C 31.221101 32.896125 31.513894 32.459973 31.884766 32.101562 C 31.908226 32.078873 31.936738 32.064679 31.960938 32.042969 L 31.699219 31.300781 C 31.416003 31.618094 31.181867 31.982417 30.998047 32.386719 L 30.349609 30.408203 z M 12.003906 32.027344 L 10.994141 32.238281 L 13.087891 33.875 L 13.087891 32.875 L 12.003906 32.027344 z M 33.730469 32.058594 C 33.599693 32.058594 33.472966 32.069802 33.351562 32.091797 C 33.007465 32.547041 32.787587 33.165946 32.693359 33.951172 C 32.677569 34.083963 32.667969 34.22639 32.667969 34.375 C 32.667969 34.529151 32.685836 34.655731 32.720703 34.759766 C 32.83838 33.98417 33.084881 33.378883 33.464844 32.949219 C 33.635582 32.756348 33.811972 32.660156 33.992188 32.660156 C 34.121436 32.660156 34.215487 32.685503 34.279297 32.734375 L 34.382812 32.248047 C 34.366363 32.232245 34.351543 32.215682 34.332031 32.201172 C 34.208723 32.106322 34.008697 32.058594 33.730469 32.058594 z M 35.810547 32.105469 L 35.324219 34.40625 C 35.295739 34.516917 35.28125 34.631061 35.28125 34.748047 C 35.281251 34.871323 35.323839 34.959048 35.40625 35.013672 L 36.021484 32.105469 L 35.810547 32.105469 z M 30.546875 34.201172 C 30.540411 34.304566 30.533203 34.408543 30.533203 34.511719 C 30.533203 34.540929 30.540318 34.568616 30.541016 34.597656 L 29.080078 34.597656 L 28.576172 35.992188 L 27.339844 35.992188 L 26.988281 36.992188 L 28.576172 36.992188 L 29.080078 35.597656 L 30.541016 35.597656 C 30.540318 35.568616 30.533203 35.540929 30.533203 35.511719 C 30.533203 35.217117 30.559888 34.92099 30.611328 34.626953 L 30.609375 34.628906 C 30.634225 34.485022 30.665315 34.342857 30.703125 34.201172 L 30.546875 34.201172 z M 31.273438 34.933594 C 31.248651 35.125547 31.232422 35.317981 31.232422 35.511719 C 31.232422 35.764661 31.269082 35.990263 31.341797 36.189453 C 31.544145 36.742773 31.932374 37.019531 32.507812 37.019531 C 33.083243 37.019531 33.57112 36.719885 33.972656 36.119141 C 34.010566 36.406866 34.112939 36.62902 34.277344 36.787109 C 34.441756 36.942037 34.650147 37.01953 34.90625 37.019531 C 35.165508 37.019531 35.3793 36.92752 35.546875 36.744141 C 35.641725 36.636639 35.758574 36.400721 35.894531 36.037109 C 35.837631 36.065589 35.765051 36.080078 35.679688 36.080078 C 35.494918 36.080078 35.376554 36.025108 35.320312 35.917969 C 35.198157 35.983342 35.060936 36.019531 34.90625 36.019531 C 34.650147 36.01953 34.441756 35.942037 34.277344 35.787109 C 34.118865 35.634718 34.019536 35.421238 33.978516 35.148438 L 33.962891 35.222656 C 33.902781 35.488244 33.794806 35.698587 33.636719 35.853516 C 33.478638 36.005277 33.302243 36.080077 33.109375 36.080078 C 33.006048 36.080078 32.920761 36.046759 32.851562 35.978516 C 32.740498 36.003933 32.62629 36.019531 32.507812 36.019531 C 31.932374 36.019531 31.544145 35.742773 31.341797 35.189453 C 31.312371 35.108846 31.291014 35.022913 31.273438 34.933594 z M 14.931641 35.072266 L 14.414062 35.367188 L 14.376953 35.423828 L 13.787109 35.794922 L 13.787109 35.726562 L 13.087891 36.125 L 13.087891 37.125 L 15.533203 35.728516 L 14.931641 35.072266 z " />
  <path
     id="path3464-6"
     style="fill:#452981;fill-opacity:1;stroke-width:1;font-variation-settings:normal;opacity:0.15;vector-effect:none;stroke-linecap:butt;stroke-linejoin:miter;stroke-miterlimit:4;stroke-dasharray:none;stroke-dashoffset:0;stroke-opacity:1;-inkscape-stroke:none;marker:none;stop-color:#000000;stop-opacity:1"
     d="M 15.5 12 A 3.0000002 3.0000646 0 0 0 12.5 15 A 3.0000002 3.0000646 0 0 0 12.564453 15.5 A 3.0000002 3.0000646 0 0 1 15.5 13 A 3.0000002 3.0000646 0 0 1 18.435547 15.5 A 3.0000002 3.0000646 0 0 0 18.5 15 A 3.0000002 3.0000646 0 0 0 15.5 12 z M 26.654297 15.189453 C 26.387441 15.451781 26.347421 15.918923 26.677734 16.212891 L 28.498047 17.824219 L 28.769531 17.064453 L 26.677734 15.212891 C 26.669181 15.205278 26.662356 15.197292 26.654297 15.189453 z M 36.353516 15.189453 C 36.345456 15.197292 36.338632 15.205278 36.330078 15.212891 L 34.240234 17.064453 L 34.511719 17.824219 L 36.330078 16.212891 C 36.660392 15.918925 36.620372 15.451781 36.353516 15.189453 z M 19.443359 15.417969 A 3.9747104 3.9747958 0 0 1 18.779297 17.242188 L 19.136719 17.599609 A 3.9747104 3.9747958 0 0 0 19.488281 15.976562 C 19.488281 15.786635 19.469239 15.601025 19.443359 15.417969 z M 11.515625 15.476562 C 11.494927 15.640702 11.480469 15.807025 11.480469 15.976562 C 11.480469 18.179435 13.281549 19.980469 15.484375 19.980469 A 3.9747104 3.9747958 0 0 0 17.75 19.271484 L 20.429688 21.951172 A 0.72796895 0.72798458 0 0 0 21.476562 20.951172 A 0.72796895 0.72798458 0 0 1 20.429688 20.951172 L 17.75 18.271484 A 3.9747104 3.9747958 0 0 1 16.193359 18.910156 A 3.0000002 3.0000646 0 0 1 15.5 19 A 3.0000002 3.0000646 0 0 1 15.273438 18.970703 C 13.335698 18.868386 11.755183 17.376279 11.515625 15.476562 z M 31.503906 19.173828 L 28.728516 20.871094 C 28.398023 21.072074 28.027707 20.962621 27.822266 20.712891 L 27.705078 21.041016 C 27.485391 21.660325 28.167074 22.212518 28.728516 21.871094 L 31.503906 20.173828 L 34.28125 21.871094 C 34.842689 22.212517 35.522421 21.660325 35.302734 21.041016 L 35.185547 20.714844 C 34.980303 20.963066 34.610804 21.071503 34.28125 20.871094 L 31.503906 19.173828 z " />
</svg>
