<?xml version="1.0" encoding="UTF-8" standalone="no"?>
<svg
   version="1.1"
   width="64"
   height="64"
   id="svg6333"
   xml:space="preserve"
   xmlns:xlink="http://www.w3.org/1999/xlink"
   xmlns="http://www.w3.org/2000/svg"
   xmlns:svg="http://www.w3.org/2000/svg"
   xmlns:rdf="http://www.w3.org/1999/02/22-rdf-syntax-ns#"
   xmlns:cc="http://creativecommons.org/ns#"
   xmlns:dc="http://purl.org/dc/elements/1.1/"><defs
     id="defs6335"><linearGradient
       id="linearGradient2382"><stop
         style="stop-color:#ffffff;stop-opacity:1;"
         offset="0"
         id="stop2378" /><stop
         style="stop-color:#ffffff;stop-opacity:0;"
         offset="1"
         id="stop2380" /></linearGradient><linearGradient
       x1="23.99999"
       y1="4.999989"
       x2="23.99999"
       y2="43"
       id="linearGradient3381-5-4"
       xlink:href="#linearGradient3924-2-2-5-8"
       gradientUnits="userSpaceOnUse"
       gradientTransform="matrix(1.4324324,0,0,1.4362832,-2.378381,-2.4707782)" /><linearGradient
       id="linearGradient3924-2-2-5-8"><stop
         id="stop3926-9-4-9-6"
         style="stop-color:#ffffff;stop-opacity:1"
         offset="0" /><stop
         id="stop3928-9-8-6-5"
         style="stop-color:#ffffff;stop-opacity:0.23529412"
         offset="0.06316455" /><stop
         id="stop3930-3-5-1-7"
         style="stop-color:#ffffff;stop-opacity:0.15686275"
         offset="0.95056331" /><stop
         id="stop3932-8-0-4-8"
         style="stop-color:#ffffff;stop-opacity:0.39215687"
         offset="1" /></linearGradient><radialGradient
       cx="4.9929786"
       cy="43.5"
       r="2.5"
       fx="4.9929786"
       fy="43.5"
       id="radialGradient3337-2-2"
       xlink:href="#linearGradient3688-166-749-4-0-3-8"
       gradientUnits="userSpaceOnUse"
       gradientTransform="matrix(2.4045407,0,0,0.99999998,41.985755,15.500001)" /><linearGradient
       id="linearGradient3688-166-749-4-0-3-8"><stop
         id="stop2883-4-0-1-8"
         style="stop-color:#181818;stop-opacity:1"
         offset="0" /><stop
         id="stop2885-9-2-9-6"
         style="stop-color:#181818;stop-opacity:0"
         offset="1" /></linearGradient><radialGradient
       cx="4.9929786"
       cy="43.5"
       r="2.5"
       fx="4.9929786"
       fy="43.5"
       id="radialGradient3339-1-4"
       xlink:href="#linearGradient3688-464-309-9-2-4-2"
       gradientUnits="userSpaceOnUse"
       gradientTransform="matrix(2.4045407,0,0,0.99999998,-22.014244,-102.5)" /><linearGradient
       id="linearGradient3688-464-309-9-2-4-2"><stop
         id="stop2889-7-9-6-9"
         style="stop-color:#181818;stop-opacity:1"
         offset="0" /><stop
         id="stop2891-6-6-1-7"
         style="stop-color:#181818;stop-opacity:0"
         offset="1" /></linearGradient><linearGradient
       id="linearGradient3702-501-757-8-4-1-1"><stop
         id="stop2895-8-9-9-1"
         style="stop-color:#181818;stop-opacity:0"
         offset="0" /><stop
         id="stop2897-7-8-7-7"
         style="stop-color:#181818;stop-opacity:1"
         offset="0.5" /><stop
         id="stop2899-4-5-1-5"
         style="stop-color:#181818;stop-opacity:0"
         offset="1" /></linearGradient><linearGradient
       x1="25.058096"
       y1="47.027729"
       x2="25.058096"
       y2="39.999443"
       id="linearGradient6394"
       xlink:href="#linearGradient3702-501-757-8-4-1-1"
       gradientUnits="userSpaceOnUse"
       gradientTransform="matrix(1.5714286,0,0,0.7142857,-5.7142853,27.928572)" /><linearGradient
       xlink:href="#linearGradient5558"
       id="linearGradient856-2-3"
       x1="12.113396"
       y1="13.057611"
       x2="46.445847"
       y2="47.39006"
       gradientUnits="userSpaceOnUse"
       gradientTransform="matrix(1.4102564,0,0,1.4102564,-1.8461748,-3.2564048)" /><linearGradient
       id="linearGradient5558"><stop
         id="stop5554"
         offset="0"
         style="stop-color:#a56de2;stop-opacity:1" /><stop
         id="stop5556"
         offset="1"
         style="stop-color:#3689e6;stop-opacity:1" /></linearGradient><linearGradient
       id="linearGradient874"><stop
         id="stop870-3"
         offset="0"
         style="stop-color:#002e99;stop-opacity:1" /><stop
         id="stop872"
         offset="1"
         style="stop-color:#452981;stop-opacity:1" /></linearGradient><linearGradient
       xlink:href="#linearGradient2382"
       id="linearGradient2384"
       x1="37.153172"
       y1="4.255136"
       x2="37.153172"
       y2="59.47414"
       gradientUnits="userSpaceOnUse" /><linearGradient
       xlink:href="#linearGradient874"
       id="linearGradient1334"
       x1="63.654377"
       y1="63.575733"
       x2="15.236819"
       y2="15.158175"
       gradientUnits="userSpaceOnUse" /></defs><metadata
     id="metadata6338"><rdf:RDF><cc:Work
         rdf:about=""><dc:format>image/svg+xml</dc:format><dc:type
           rdf:resource="http://purl.org/dc/dcmitype/StillImage" /></cc:Work></rdf:RDF></metadata><rect
     style="opacity:0.6;fill:url(#radialGradient3337-2-2);fill-opacity:1;stroke:none;stroke-width:1.06199"
     id="rect2801-5-5-7-9"
     y="56.5"
     x="54"
     height="5"
     width="6" /><rect
     style="opacity:0.6;fill:url(#radialGradient3339-1-4);fill-opacity:1;stroke:none;stroke-width:1.06199"
     id="rect3696-3-0-3-7"
     transform="scale(-1)"
     y="-61.5"
     x="-10"
     height="5"
     width="6" /><rect
     style="opacity:0.6;fill:url(#linearGradient6394);fill-opacity:1;stroke:none;stroke-width:1.06199"
     id="rect3700-5-6-8-4"
     y="56.5"
     x="10"
     height="5.0000005"
     width="44" /><rect
     style="color:#000000;display:inline;overflow:visible;visibility:visible;opacity:1;fill:url(#linearGradient856-2-3);fill-opacity:1;fill-rule:nonzero;stroke:none;stroke-width:1;stroke-opacity:0.5;marker:none;enable-background:accumulate"
     id="rect5505-21-1-5"
     y="4.5000019"
     x="4.4999986"
     ry="6"
     rx="6"
     height="55"
     width="55" /><rect
     style="color:#000000;display:inline;overflow:visible;visibility:visible;fill:url(#linearGradient2384);fill-opacity:1;fill-rule:nonzero;stroke:none;stroke-width:1;stroke-opacity:0.5;marker:none;enable-background:accumulate;opacity:0.2"
     id="rect5505-21-1-5-9"
     y="4.5000019"
     x="4.4999986"
     ry="6"
     rx="6"
     height="55"
     width="55" /><path
     style="color:#000000;line-height:normal;font-variant-ligatures:normal;font-variant-position:normal;font-variant-caps:normal;font-variant-numeric:normal;font-variant-alternates:normal;font-feature-settings:normal;text-indent:0;text-align:start;text-decoration-line:none;text-decoration-style:solid;text-decoration-color:#000000;text-transform:none;text-orientation:mixed;shape-padding:0;opacity:0.15;isolation:auto;mix-blend-mode:normal;fill:#452981"
     d="m 48.484375,48.732422 c -0.01344,0 0.05237,0.03037 0.06055,0.03125 a 1.0095659,1.0095659 0 0 0 -0.205078,0.01367 c 0.09439,-0.04725 0.147378,-0.04492 0.144531,-0.04492 z"
     id="path393" /><path
     style="color:#000000;line-height:normal;font-variant-ligatures:normal;font-variant-position:normal;font-variant-caps:normal;font-variant-numeric:normal;font-variant-alternates:normal;font-feature-settings:normal;text-indent:0;text-align:start;text-decoration-line:none;text-decoration-style:solid;text-decoration-color:#000000;text-transform:none;text-orientation:mixed;shape-padding:0;opacity:0.15;isolation:auto;mix-blend-mode:normal;fill:#452981"
     d="m 47.15625,43.375 0.01367,0.0098 c -0.003,-0.0023 -0.0068,3.27e-4 -0.0098,-0.002 -0.0022,-0.0017 -0.0017,-0.0062 -0.0039,-0.0078 z"
     id="path391" /><path
     id="path389"
     style="color:#000000;line-height:normal;font-variant-ligatures:normal;font-variant-position:normal;font-variant-caps:normal;font-variant-numeric:normal;font-variant-alternates:normal;font-feature-settings:normal;text-indent:0;text-align:start;text-decoration-line:none;text-decoration-style:solid;text-decoration-color:#000000;text-transform:none;text-orientation:mixed;shape-padding:0;opacity:0.15;isolation:auto;mix-blend-mode:normal;fill:#002e99"
     d="M 30.029297 39.646484 A 1.0095659 1.0095659 0 0 0 29.792969 39.667969 L 13.792969 43.011719 A 1.0095659 1.0095659 0 0 0 13.378906 44.794922 L 15.990234 46.835938 L 15.990234 51 A 1.0095659 1.0095659 0 0 0 17.5 51.876953 L 20.726562 50.033203 L 22.941406 51.630859 A 1.0095659 1.0095659 0 0 0 24.382812 51.355469 L 30.851562 41.199219 A 1.0095659 1.0095659 0 0 0 30.029297 39.646484 z M 39.548828 40.039062 A 1.0095659 1.0095659 0 0 0 38.595703 40.714844 L 35.080078 50.714844 A 1.0095659 1.0095659 0 0 0 36.033203 52.058594 L 38.308594 52.058594 A 1.0095659 1.0095659 0 0 0 39.257812 51.392578 L 39.740234 50.058594 L 41.123047 50.058594 A 1.0095659 1.0095659 0 0 0 41.283203 50.015625 C 41.304433 50.089265 41.294033 50.172159 41.320312 50.244141 A 1.0095659 1.0095659 0 0 0 41.322266 50.246094 C 41.71793 51.328018 42.792745 52.095703 43.939453 52.095703 C 44.605529 52.095703 45.210684 51.832728 45.759766 51.449219 C 45.768666 51.458119 45.766261 51.473672 45.775391 51.482422 A 1.0095659 1.0095659 0 0 0 45.783203 51.488281 C 46.208803 51.889322 46.808107 52.095703 47.376953 52.095703 C 47.983719 52.095703 48.624054 51.831289 49.041016 51.375 A 1.0095659 1.0095659 0 0 0 49.052734 51.361328 C 49.405643 50.961359 49.526183 50.595214 49.736328 50.033203 A 1.0095659 1.0095659 0 0 0 49.015625 48.732422 L 49.962891 44.257812 A 1.0095659 1.0095659 0 0 0 48.974609 43.039062 L 46.970703 43.039062 A 1.0095659 1.0095659 0 0 0 46.707031 43.255859 C 46.375127 43.123342 46.047287 42.970703 45.693359 42.970703 C 45.103371 42.970703 44.548568 43.143195 44.029297 43.396484 L 43.082031 40.712891 A 1.0095659 1.0095659 0 0 0 42.130859 40.039062 L 39.548828 40.039062 z " /><path
     id="path383"
     style="color:#000000;line-height:normal;font-variant-ligatures:normal;font-variant-position:normal;font-variant-caps:normal;font-variant-numeric:normal;font-variant-alternates:normal;font-feature-settings:normal;text-indent:0;text-align:start;text-decoration-line:none;text-decoration-style:solid;text-decoration-color:#000000;text-transform:none;text-orientation:mixed;shape-padding:0;opacity:0.15;isolation:auto;mix-blend-mode:normal;fill:#452981"
     d="M 19.5 13.867188 C 15.923797 13.867188 12.990234 16.80075 12.990234 20.376953 C 12.990234 23.953157 15.923797 26.886719 19.5 26.886719 C 20.514386 26.886345 21.495782 26.575567 22.400391 26.117188 L 25.568359 29.287109 C 25.569359 29.288209 25.571266 29.287896 25.572266 29.289062 C 26.312844 30.047696 27.681783 30.058453 28.431641 29.308594 C 29.181496 28.558736 29.170739 27.189797 28.412109 26.449219 L 25.240234 23.277344 C 25.698614 22.372735 26.009392 21.391339 26.009766 20.376953 C 26.009766 16.80075 23.076203 13.867188 19.5 13.867188 z M 42.664062 13.992188 C 41.90161 14.024497 41.214744 14.495108 40.910156 15.193359 L 39.6875 17.990234 L 36.5 17.990234 A 1.0095659 1.0095659 0 0 0 36.498047 17.990234 C 35.62347 17.991186 34.893363 18.574545 34.623047 19.285156 C 34.352731 19.995769 34.510612 20.918463 35.164062 21.5 A 1.0095659 1.0095659 0 0 0 35.166016 21.501953 L 37.652344 23.701172 L 36.357422 27.322266 A 1.0095659 1.0095659 0 0 0 36.357422 27.324219 C 36.058677 28.166379 36.385993 29.070263 36.986328 29.556641 C 37.586661 30.043017 38.535899 30.176836 39.298828 29.712891 A 1.0095659 1.0095659 0 0 0 39.298828 29.710938 L 42.75 27.603516 L 46.201172 29.710938 A 1.0095659 1.0095659 0 0 0 46.201172 29.712891 C 46.963792 30.176645 47.913729 30.04348 48.513672 29.556641 C 49.113614 29.0698 49.43915 28.165759 49.140625 27.324219 A 1.0095659 1.0095659 0 0 0 49.140625 27.322266 L 47.847656 23.701172 L 50.332031 21.501953 A 1.0095659 1.0095659 0 0 0 50.333984 21.5 C 50.987386 20.918514 51.145313 19.995775 50.875 19.285156 C 50.604687 18.574539 49.874577 17.991186 49 17.990234 A 1.0095659 1.0095659 0 0 0 48.998047 17.990234 L 45.8125 17.990234 L 44.589844 15.193359 C 44.259175 14.435634 43.487431 13.959493 42.666016 13.992188 A 1.0095659 1.0095659 0 0 0 42.664062 13.992188 z M 19.5 16.117188 C 19.56442 16.117188 19.554932 16.119147 19.507812 16.123047 C 19.604772 16.130547 19.810866 16.142471 19.908203 16.144531 C 19.864703 16.136431 19.855409 16.130549 19.917969 16.136719 C 19.986149 16.143419 19.965266 16.145631 19.910156 16.144531 C 20.000036 16.161041 20.222666 16.193108 20.322266 16.205078 C 20.276736 16.192098 20.266908 16.186689 20.330078 16.199219 C 20.397318 16.212589 20.377016 16.211618 20.322266 16.205078 C 20.410336 16.230178 20.630141 16.283108 20.728516 16.304688 C 20.684546 16.287288 20.674698 16.282071 20.736328 16.300781 C 20.797968 16.319481 20.788447 16.318524 20.742188 16.308594 C 20.832567 16.343834 21.028464 16.415112 21.121094 16.445312 C 21.079204 16.423683 21.071309 16.416746 21.130859 16.441406 C 21.190369 16.466056 21.179806 16.465562 21.134766 16.451172 C 21.220826 16.495022 21.406822 16.583691 21.496094 16.623047 C 21.458414 16.598627 21.452133 16.589381 21.507812 16.619141 C 21.568522 16.651591 21.548997 16.645467 21.498047 16.623047 C 21.577547 16.674367 21.78639 16.799807 21.869141 16.845703 C 21.825151 16.811163 21.809898 16.797658 21.867188 16.835938 C 21.918847 16.870457 21.908814 16.868416 21.871094 16.847656 C 21.948254 16.908146 22.112305 17.02876 22.191406 17.083984 C 22.157446 17.051014 22.151342 17.043114 22.201172 17.083984 C 22.250962 17.124854 22.241915 17.12052 22.203125 17.09375 C 22.273645 17.16147 22.428421 17.302214 22.501953 17.365234 C 22.471323 17.329144 22.466139 17.319684 22.511719 17.365234 C 22.557269 17.410784 22.547809 17.40559 22.511719 17.375 C 22.574739 17.44853 22.715482 17.603303 22.783203 17.673828 C 22.756403 17.634988 22.752069 17.625941 22.792969 17.675781 C 22.833839 17.725571 22.825939 17.719477 22.792969 17.685547 C 22.848189 17.764647 22.968804 17.928695 23.029297 18.005859 C 23.008537 17.968139 23.006496 17.958106 23.041016 18.009766 C 23.079326 18.067106 23.06583 18.051842 23.03125 18.007812 C 23.07715 18.090562 23.202588 18.299406 23.253906 18.378906 C 23.231496 18.327996 23.225373 18.308471 23.257812 18.369141 C 23.287572 18.424811 23.278316 18.418529 23.253906 18.380859 C 23.293266 18.470129 23.381934 18.656124 23.425781 18.742188 C 23.411361 18.697158 23.410867 18.686584 23.435547 18.746094 C 23.460197 18.805604 23.453261 18.797709 23.431641 18.755859 C 23.461841 18.848489 23.533124 19.044389 23.568359 19.134766 C 23.558459 19.088466 23.557482 19.078945 23.576172 19.140625 C 23.594872 19.202265 23.589656 19.192417 23.572266 19.148438 C 23.593846 19.246817 23.646765 19.466613 23.671875 19.554688 C 23.665275 19.499928 23.664334 19.479625 23.677734 19.546875 C 23.690304 19.610055 23.684875 19.600227 23.671875 19.554688 C 23.683845 19.654287 23.715912 19.876921 23.732422 19.966797 C 23.731322 19.911677 23.733534 19.890794 23.740234 19.958984 C 23.746434 20.021514 23.740498 20.01221 23.732422 19.96875 C 23.734522 20.06609 23.746416 20.272178 23.753906 20.369141 C 23.757806 20.322031 23.759766 20.312543 23.759766 20.376953 C 23.759766 20.441373 23.757806 20.431886 23.753906 20.384766 C 23.746406 20.481726 23.734482 20.687819 23.732422 20.785156 C 23.740522 20.741656 23.746404 20.732362 23.740234 20.794922 C 23.733534 20.863102 23.731322 20.842219 23.732422 20.787109 C 23.715912 20.876989 23.683845 21.099619 23.671875 21.199219 C 23.684855 21.153689 23.690264 21.143861 23.677734 21.207031 C 23.664364 21.274271 23.665335 21.253969 23.671875 21.199219 C 23.646775 21.287289 23.593846 21.507094 23.572266 21.605469 C 23.589666 21.561499 23.594882 21.551651 23.576172 21.613281 C 23.557472 21.674921 23.558439 21.665401 23.568359 21.619141 C 23.533119 21.709521 23.461842 21.905417 23.431641 21.998047 C 23.453271 21.956157 23.460207 21.948263 23.435547 22.007812 C 23.410897 22.067322 23.411391 22.056759 23.425781 22.011719 C 23.381931 22.097779 23.293261 22.283775 23.253906 22.373047 C 23.278316 22.335367 23.287572 22.329086 23.257812 22.384766 C 23.225363 22.445476 23.231486 22.42595 23.253906 22.375 C 23.202586 22.4545 23.077146 22.663343 23.03125 22.746094 C 23.06579 22.702104 23.079296 22.686851 23.041016 22.744141 C 23.006496 22.795801 23.008537 22.785767 23.029297 22.748047 C 22.968807 22.825207 22.848193 22.989258 22.792969 23.068359 C 22.825939 23.034399 22.833839 23.028295 22.792969 23.078125 C 22.752099 23.127915 22.756433 23.118868 22.783203 23.080078 C 22.715483 23.150598 22.574739 23.305374 22.511719 23.378906 C 22.547809 23.348276 22.557269 23.343092 22.511719 23.388672 C 22.466169 23.434222 22.471363 23.424762 22.501953 23.388672 C 22.428423 23.451692 22.27365 23.592435 22.203125 23.660156 C 22.241965 23.633356 22.251012 23.629022 22.201172 23.669922 C 22.151382 23.710792 22.157476 23.702892 22.191406 23.669922 C 22.112306 23.725142 21.948258 23.845757 21.871094 23.90625 C 21.908814 23.88549 21.918847 23.883449 21.867188 23.917969 C 21.809848 23.956279 21.825111 23.942783 21.869141 23.908203 C 21.786391 23.954103 21.577547 24.079541 21.498047 24.130859 C 21.548957 24.108449 21.568482 24.102326 21.507812 24.134766 C 21.452143 24.164526 21.458424 24.155269 21.496094 24.130859 C 21.406824 24.170219 21.22083 24.258887 21.134766 24.302734 C 21.179796 24.288314 21.190369 24.28782 21.130859 24.3125 C 21.071349 24.33715 21.079234 24.330214 21.121094 24.308594 C 21.028464 24.338794 20.832564 24.410078 20.742188 24.445312 C 20.788487 24.435413 20.798008 24.434435 20.736328 24.453125 C 20.674688 24.471825 20.684536 24.466609 20.728516 24.449219 C 20.630136 24.470799 20.410341 24.523718 20.322266 24.548828 C 20.377026 24.542228 20.397328 24.541288 20.330078 24.554688 C 20.266898 24.567257 20.276726 24.561828 20.322266 24.548828 C 20.222666 24.560798 20.000032 24.592865 19.910156 24.609375 C 19.965276 24.608275 19.986159 24.610488 19.917969 24.617188 C 19.855439 24.623387 19.864743 24.617451 19.908203 24.609375 C 19.810863 24.611475 19.604775 24.623369 19.507812 24.630859 C 19.554922 24.634759 19.5644 24.636719 19.5 24.636719 C 19.43558 24.636719 19.445068 24.634759 19.492188 24.630859 C 19.395228 24.623359 19.189134 24.611435 19.091797 24.609375 C 19.135297 24.617475 19.144591 24.623357 19.082031 24.617188 C 19.013851 24.610488 19.034734 24.608275 19.089844 24.609375 C 18.999964 24.592865 18.777334 24.560798 18.677734 24.548828 C 18.723264 24.561808 18.733092 24.567217 18.669922 24.554688 C 18.602682 24.541318 18.622984 24.542288 18.677734 24.548828 C 18.589664 24.523728 18.369859 24.470799 18.271484 24.449219 C 18.315454 24.466619 18.325302 24.471835 18.263672 24.453125 C 18.202032 24.434425 18.211553 24.435393 18.257812 24.445312 C 18.167433 24.410073 17.971536 24.338795 17.878906 24.308594 C 17.920796 24.330214 17.928691 24.33716 17.869141 24.3125 C 17.809631 24.28785 17.820194 24.288344 17.865234 24.302734 C 17.779174 24.258884 17.593178 24.170214 17.503906 24.130859 C 17.541586 24.155279 17.547867 24.164526 17.492188 24.134766 C 17.431478 24.102316 17.451003 24.108439 17.501953 24.130859 C 17.422453 24.079539 17.213609 23.954099 17.130859 23.908203 C 17.174849 23.942743 17.190102 23.956249 17.132812 23.917969 C 17.081153 23.883449 17.091186 23.88549 17.128906 23.90625 C 17.051746 23.84576 16.887695 23.725146 16.808594 23.669922 C 16.842554 23.702892 16.848658 23.710792 16.798828 23.669922 C 16.749038 23.629052 16.758085 23.633386 16.796875 23.660156 C 16.726355 23.592436 16.571578 23.451692 16.498047 23.388672 C 16.528677 23.424762 16.533861 23.434222 16.488281 23.388672 C 16.442731 23.343122 16.452191 23.348316 16.488281 23.378906 C 16.425261 23.305376 16.284518 23.150603 16.216797 23.080078 C 16.243597 23.118918 16.247931 23.127965 16.207031 23.078125 C 16.166161 23.028335 16.174061 23.034429 16.207031 23.068359 C 16.151811 22.989259 16.031196 22.825211 15.970703 22.748047 C 15.991463 22.785767 15.993504 22.795801 15.958984 22.744141 C 15.920674 22.686801 15.93417 22.702054 15.96875 22.746094 C 15.92285 22.663344 15.797412 22.4545 15.746094 22.375 C 15.768504 22.42591 15.774627 22.445436 15.742188 22.384766 C 15.712428 22.329096 15.721684 22.335377 15.746094 22.373047 C 15.706744 22.283777 15.618066 22.097783 15.574219 22.011719 C 15.588639 22.056749 15.589143 22.067322 15.564453 22.007812 C 15.539803 21.948303 15.546739 21.956187 15.568359 21.998047 C 15.538159 21.905417 15.466878 21.709518 15.431641 21.619141 C 15.441541 21.665441 15.442518 21.674961 15.423828 21.613281 C 15.405128 21.551641 15.410344 21.561489 15.427734 21.605469 C 15.406154 21.507089 15.353235 21.287294 15.328125 21.199219 C 15.334725 21.253979 15.335666 21.274281 15.322266 21.207031 C 15.309696 21.143851 15.315125 21.153679 15.328125 21.199219 C 15.316155 21.099619 15.284088 20.876985 15.267578 20.787109 C 15.268678 20.842229 15.266466 20.863112 15.259766 20.794922 C 15.253566 20.732392 15.259502 20.741696 15.267578 20.785156 C 15.265478 20.687816 15.253584 20.481729 15.246094 20.384766 C 15.242194 20.431876 15.240234 20.441363 15.240234 20.376953 C 15.240234 20.312533 15.242194 20.322021 15.246094 20.369141 C 15.253594 20.272181 15.265518 20.066087 15.267578 19.96875 C 15.259478 20.01225 15.253596 20.021544 15.259766 19.958984 C 15.266466 19.890804 15.268678 19.911687 15.267578 19.966797 C 15.284088 19.876917 15.316155 19.654287 15.328125 19.554688 C 15.315145 19.600217 15.309736 19.610045 15.322266 19.546875 C 15.335636 19.479635 15.334665 19.499938 15.328125 19.554688 C 15.353225 19.466618 15.406154 19.246812 15.427734 19.148438 C 15.410334 19.192407 15.405118 19.202255 15.423828 19.140625 C 15.442528 19.078985 15.441571 19.088506 15.431641 19.134766 C 15.466881 19.044386 15.538158 18.848489 15.568359 18.755859 C 15.546739 18.797749 15.539793 18.805644 15.564453 18.746094 C 15.589103 18.686584 15.588609 18.697148 15.574219 18.742188 C 15.618069 18.656128 15.70674 18.470131 15.746094 18.380859 C 15.721674 18.418539 15.712428 18.424821 15.742188 18.369141 C 15.774637 18.308431 15.768514 18.327956 15.746094 18.378906 C 15.797414 18.299406 15.922854 18.090562 15.96875 18.007812 C 15.93421 18.051802 15.920704 18.067056 15.958984 18.009766 C 15.993504 17.958106 15.991463 17.968139 15.970703 18.005859 C 16.031193 17.928699 16.151807 17.764648 16.207031 17.685547 C 16.174061 17.719507 16.166161 17.725611 16.207031 17.675781 C 16.247901 17.625991 16.243567 17.635038 16.216797 17.673828 C 16.284517 17.603308 16.425261 17.448531 16.488281 17.375 C 16.452191 17.40563 16.442731 17.410814 16.488281 17.365234 C 16.533831 17.319684 16.528637 17.329144 16.498047 17.365234 C 16.571577 17.302214 16.72635 17.161471 16.796875 17.09375 C 16.758035 17.12055 16.748988 17.124884 16.798828 17.083984 C 16.848618 17.043114 16.842524 17.051014 16.808594 17.083984 C 16.887694 17.028764 17.051742 16.908149 17.128906 16.847656 C 17.091186 16.868416 17.081153 16.870457 17.132812 16.835938 C 17.190152 16.797628 17.174889 16.811123 17.130859 16.845703 C 17.213609 16.799803 17.422453 16.674365 17.501953 16.623047 C 17.451043 16.645457 17.431518 16.651581 17.492188 16.619141 C 17.547857 16.589381 17.541576 16.598637 17.503906 16.623047 C 17.593176 16.583697 17.77917 16.495019 17.865234 16.451172 C 17.820204 16.465592 17.809631 16.466086 17.869141 16.441406 C 17.928651 16.416756 17.920766 16.423693 17.878906 16.445312 C 17.971536 16.415113 18.167436 16.343829 18.257812 16.308594 C 18.211513 16.318494 18.201992 16.319471 18.263672 16.300781 C 18.325312 16.282081 18.315464 16.287298 18.271484 16.304688 C 18.369864 16.283108 18.589659 16.230188 18.677734 16.205078 C 18.622974 16.211678 18.602672 16.212619 18.669922 16.199219 C 18.733102 16.186649 18.723274 16.192078 18.677734 16.205078 C 18.777334 16.193108 18.999968 16.161041 19.089844 16.144531 C 19.034724 16.145631 19.013841 16.143419 19.082031 16.136719 C 19.144561 16.130519 19.135257 16.136455 19.091797 16.144531 C 19.189137 16.142431 19.395225 16.130537 19.492188 16.123047 C 19.445078 16.119147 19.4356 16.117187 19.5 16.117188 z " /><path
     id="path703-7"
     style="fill:#002e99;opacity:0.3"
     d="M 30 40.65625 L 14 44 L 17 46.34375 L 17 51 L 20.5 49 L 19.5 47.90625 L 23.53125 50.8125 L 30 40.65625 z M 39.548828 41.048828 L 36.033203 51.048828 L 38.308594 51.048828 L 39.03125 49.048828 L 41.123047 49.048828 C 41.122047 49.007228 41.113281 48.967631 41.113281 48.925781 C 41.113281 48.503792 41.148976 48.081336 41.222656 47.660156 L 41.220703 47.662109 C 41.256303 47.45601 41.301309 47.251778 41.355469 47.048828 L 39.5625 47.048828 L 40.849609 43.048828 L 41.777344 45.882812 C 42.096853 45.180083 42.515626 44.556358 43.046875 44.042969 C 43.080475 44.010469 43.12158 43.988131 43.15625 43.957031 L 42.130859 41.048828 L 39.548828 41.048828 z M 28.5625 41.625 L 19.71875 47.25 L 18.84375 48.5625 L 18 49.09375 L 18 46.75 L 28.5625 41.625 z M 45.693359 43.980469 C 44.93249 43.980469 44.281137 44.240879 43.742188 44.761719 C 43.203238 45.282548 42.78986 45.941182 42.5 46.738281 C 42.36866 47.100601 42.270431 47.465182 42.207031 47.832031 C 42.143631 48.194351 42.113281 48.558932 42.113281 48.925781 C 42.113281 49.288101 42.165381 49.613118 42.269531 49.898438 C 42.559381 50.691017 43.115174 51.085938 43.939453 51.085938 C 44.763722 51.085938 45.463883 50.657384 46.039062 49.796875 C 46.093362 50.209015 46.23911 50.527456 46.474609 50.753906 C 46.710119 50.975826 47.010103 51.085938 47.376953 51.085938 C 47.748323 51.085938 48.054882 50.956039 48.294922 50.693359 C 48.430792 50.53937 48.596266 50.200527 48.791016 49.679688 C 48.709516 49.720487 48.606655 49.742187 48.484375 49.742188 C 48.103945 49.742188 47.914063 49.582655 47.914062 49.265625 C 47.914062 49.098055 47.933809 48.935864 47.974609 48.777344 L 48.974609 44.048828 L 46.970703 44.048828 L 46.820312 44.789062 L 46.820312 44.6875 C 46.820312 44.48369 46.731317 44.316897 46.554688 44.185547 C 46.378058 44.049687 46.091909 43.980469 45.693359 43.980469 z M 46.066406 44.84375 C 46.324556 44.84375 46.491369 44.911055 46.568359 45.046875 C 46.649859 45.178215 46.691406 45.286997 46.691406 45.373047 L 46.025391 48.511719 C 45.939291 48.892148 45.78309 49.194096 45.556641 49.416016 C 45.330201 49.633405 45.079004 49.742188 44.802734 49.742188 C 44.653275 49.742188 44.529327 49.691487 44.429688 49.591797 C 44.257588 49.428757 44.169922 49.142598 44.169922 48.730469 C 44.169922 48.517599 44.182478 48.31521 44.205078 48.125 C 44.354538 46.879531 44.723741 45.923572 45.3125 45.257812 C 45.55707 44.981543 45.808257 44.84375 46.066406 44.84375 z " /><path
     id="path724-5"
     style="color:#000000;fill:#452981;stroke-width:1;marker:none;opacity:0.3"
     d="M 19.5 14.876953 C 16.474003 14.876953 14 17.350956 14 20.376953 C 14 23.40295 16.474003 25.876953 19.5 25.876953 A 5.46 5.46 0 0 0 22.611328 24.902344 L 26.292969 28.583984 A 1 1 0 1 0 27.707031 27.169922 L 24.025391 23.488281 A 5.46 5.46 0 0 0 25 20.376953 C 25 17.350956 22.525997 14.876953 19.5 14.876953 z M 42.707031 15 C 42.324775 15.016197 41.988912 15.246971 41.835938 15.597656 L 40.347656 19 L 36.5 19 C 35.580954 19.001 35.149392 20.135104 35.835938 20.746094 L 38.832031 23.398438 L 37.308594 27.662109 C 36.993907 28.549211 37.969211 29.338668 38.773438 28.849609 L 42.75 26.419922 L 46.726562 28.849609 C 47.530789 29.338666 48.50414 28.549211 48.189453 27.662109 L 46.667969 23.398438 L 49.662109 20.746094 C 50.348656 20.135104 49.917114 19.001 48.998047 19 L 45.152344 19 L 43.664062 15.597656 C 43.49913 15.219715 43.119062 14.9836 42.707031 15 z M 19.5 16.126953 A 4.25 4.25 0 0 1 23.75 20.376953 A 4.25 4.25 0 0 1 19.5 24.626953 A 4.25 4.25 0 0 1 15.25 20.376953 A 4.25 4.25 0 0 1 19.5 16.126953 z " /><path
     id="path703"
     style="fill:#ffffff;fill-opacity:1"
     d="M 19.5 13.876953 C 16.474003 13.876953 14 16.350956 14 19.376953 C 14 22.40295 16.474003 24.876953 19.5 24.876953 A 5.46 5.46 0 0 0 22.611328 23.902344 L 26.292969 27.583984 A 1 1 0 1 0 27.707031 26.169922 L 24.025391 22.488281 A 5.46 5.46 0 0 0 25 19.376953 C 25 16.350956 22.525997 13.876953 19.5 13.876953 z M 42.707031 14 C 42.324775 14.016197 41.988912 14.246971 41.835938 14.597656 L 40.347656 18 L 36.5 18 C 35.580954 18.001 35.149392 19.135104 35.835938 19.746094 L 38.832031 22.398438 L 37.308594 26.662109 C 36.993907 27.549211 37.969211 28.338668 38.773438 27.849609 L 42.75 25.419922 L 46.726562 27.849609 C 47.530789 28.338666 48.50414 27.549211 48.189453 26.662109 L 46.667969 22.398438 L 49.662109 19.746094 C 50.348656 19.135104 49.917114 18.001 48.998047 18 L 45.152344 18 L 43.664062 14.597656 C 43.49913 14.219715 43.119062 13.9836 42.707031 14 z M 19.5 15.126953 A 4.25 4.25 0 0 1 23.75 19.376953 A 4.25 4.25 0 0 1 19.5 23.626953 A 4.25 4.25 0 0 1 15.25 19.376953 A 4.25 4.25 0 0 1 19.5 15.126953 z M 30 39.65625 L 14 43 L 17 45.34375 L 17 50 L 20.5 48 L 19.5 46.90625 L 23.53125 49.8125 L 30 39.65625 z M 39.548828 40.048828 L 36.033203 50.048828 L 38.308594 50.048828 L 39.03125 48.048828 L 41.123047 48.048828 C 41.122047 48.007228 41.113281 47.967631 41.113281 47.925781 C 41.113281 47.503792 41.148976 47.081336 41.222656 46.660156 L 41.220703 46.662109 C 41.256303 46.45601 41.301309 46.251778 41.355469 46.048828 L 39.5625 46.048828 L 40.849609 42.048828 L 41.777344 44.882812 C 42.096853 44.180083 42.515626 43.556358 43.046875 43.042969 C 43.080475 43.010469 43.12158 42.988131 43.15625 42.957031 L 42.130859 40.048828 L 39.548828 40.048828 z M 28.5625 40.625 L 19.71875 46.25 L 18.84375 47.5625 L 18 48.09375 L 18 45.75 L 28.5625 40.625 z M 45.693359 42.980469 C 44.93249 42.980469 44.281137 43.240879 43.742188 43.761719 C 43.203238 44.282548 42.78986 44.941182 42.5 45.738281 C 42.36866 46.100601 42.270431 46.465182 42.207031 46.832031 C 42.143631 47.194351 42.113281 47.558932 42.113281 47.925781 C 42.113281 48.288101 42.165381 48.613118 42.269531 48.898438 C 42.559381 49.691017 43.115174 50.085938 43.939453 50.085938 C 44.763722 50.085938 45.463883 49.657384 46.039062 48.796875 C 46.093362 49.209015 46.23911 49.527456 46.474609 49.753906 C 46.710119 49.975826 47.010103 50.085937 47.376953 50.085938 C 47.748323 50.085938 48.054882 49.956039 48.294922 49.693359 C 48.430792 49.53937 48.596266 49.200527 48.791016 48.679688 C 48.709516 48.720487 48.606655 48.742188 48.484375 48.742188 C 48.103945 48.742188 47.914063 48.582655 47.914062 48.265625 C 47.914062 48.098055 47.933809 47.935864 47.974609 47.777344 L 48.974609 43.048828 L 46.970703 43.048828 L 46.820312 43.789062 L 46.820312 43.6875 C 46.820312 43.48369 46.731317 43.316897 46.554688 43.185547 C 46.378058 43.049687 46.091909 42.980469 45.693359 42.980469 z M 46.066406 43.84375 C 46.324556 43.84375 46.491369 43.911055 46.568359 44.046875 C 46.649859 44.178215 46.691406 44.286997 46.691406 44.373047 L 46.025391 47.511719 C 45.939291 47.892148 45.78309 48.194096 45.556641 48.416016 C 45.330201 48.633405 45.079004 48.742187 44.802734 48.742188 C 44.653275 48.742188 44.529327 48.691487 44.429688 48.591797 C 44.257588 48.428757 44.169922 48.142598 44.169922 47.730469 C 44.169922 47.517599 44.182478 47.31521 44.205078 47.125 C 44.354538 45.879531 44.723741 44.923572 45.3125 44.257812 C 45.55707 43.981543 45.808257 43.84375 46.066406 43.84375 z " /><rect
     style="opacity:0.5;fill:none;stroke:url(#linearGradient3381-5-4);stroke-width:1;stroke-linecap:round;stroke-linejoin:round;stroke-miterlimit:4;stroke-dasharray:none;stroke-dashoffset:0;stroke-opacity:1"
     id="rect6741-5-0-2-3"
     y="5.4287739"
     x="5.4999986"
     ry="5"
     height="53.142479"
     width="53"
     rx="5" /><rect
     style="color:#000000;display:inline;overflow:visible;visibility:visible;fill:none;fill-opacity:1;fill-rule:nonzero;stroke:url(#linearGradient1334);stroke-width:1;stroke-opacity:0.5;marker:none;enable-background:accumulate"
     id="rect5505-21-1-5-2"
     y="4.5000019"
     x="4.4999986"
     ry="6"
     rx="6"
     height="55"
     width="55" /></svg>
